@startuml
top to bottom direction
class AAUOC {
newLocation(l : Location) : void
newEvent(e : Event) : void
newPerson(p : Person) : void
informEvent(e : Event) : void
register(m : Member,e : Event) : void

}
class Location{
description : String
address : String
}
class Event {
date : Date
description : String
assign(l : Location) : void
}
class Person{
name : String
}
class Member {
e-mail : String
}
class Conference{
max_attendees : Integer
}

class BoardMeeting
class BoardMember
AAUOC <|--right Location
AAUOC <|--down Event
AAUOC <|--right Person
Event <|-- Conference
Event <|--- BoardMeeting
Person --- Member
Member <|--- BoardMember
Event <|-- Member : attendsTo
Event -- Location : isLocatedIn
Conference -- Person : attendsTo
BoardMeeting--BoardMember : attendsTo
@enduml